<svg id="Grupo_443" data-name="Grupo 443" xmlns="http://www.w3.org/2000/svg" width="251.502" height="378.008" viewBox="0 0 251.502 378.008">
  <path id="Caminho_28" data-name="Caminho 28" d="M2396.777,174a124.7,124.7,0,0,0-90.55,38.5,10.924,10.924,0,1,0,15.728,15.165,103.9,103.9,0,0,1,178.727,72.123V426.216a103.9,103.9,0,1,1-207.81,0,10.923,10.923,0,1,0-21.847,0c0,69.361,56.413,125.792,125.752,125.792s125.75-56.431,125.75-125.792V299.792C2522.527,230.431,2466.116,174,2396.777,174Z" transform="translate(-2271.025 -174)" fill="#0965d6"/>
  <path id="Caminho_29" data-name="Caminho 29" d="M2474.894,321.252a10.094,10.094,0,0,0,10.093-10.1c0-48.169-36.163-87.357-80.613-87.357s-80.614,39.189-80.614,87.357V418.988c0,48.17,36.164,87.358,80.614,87.358s80.613-39.188,80.613-87.358a10.093,10.093,0,1,0-20.185,0c0,37.036-27.108,67.167-60.428,67.167s-60.43-30.131-60.43-67.167V311.156c0-37.035,27.109-67.165,60.43-67.165s60.428,30.13,60.428,67.165A10.1,10.1,0,0,0,2474.894,321.252Z" transform="translate(-2278.623 -176.068)" fill="#0965d6"/>
  <path id="Caminho_30" data-name="Caminho 30" d="M2431.318,456.33a24.146,24.146,0,0,0,24.114-24.123V311.644a8.769,8.769,0,1,0-17.537,0V432.207a6.577,6.577,0,1,1-13.154,0V327a24.175,24.175,0,0,0-48.351,0V447.559a8.769,8.769,0,1,0,17.538,0V327a6.637,6.637,0,0,1,13.274,0V432.207A24.147,24.147,0,0,0,2431.318,456.33Z" transform="translate(-2290.16 -190.597)" fill="#0965d6"/>
</svg>
