<svg id="Grupo_348" data-name="Grupo 348" xmlns="http://www.w3.org/2000/svg" width="64.133" height="96.392" viewBox="0 0 64.133 96.392">
  <path id="Caminho_52" data-name="Caminho 52" d="M205.091,174A31.8,31.8,0,0,0,182,183.819a2.786,2.786,0,1,0,4.011,3.867,26.494,26.494,0,0,1,45.575,18.391v32.238a26.5,26.5,0,1,1-52.992,0,2.785,2.785,0,1,0-5.571,0,32.066,32.066,0,1,0,64.133,0V206.077A32.108,32.108,0,0,0,205.091,174Z" transform="translate(-173.025 -174)" fill="#064796"/>
  <path id="Caminho_53" data-name="Caminho 53" d="M267.47,250.695a2.786,2.786,0,0,0,2.785-2.786c0-13.294-9.981-24.109-22.248-24.109s-22.248,10.816-22.248,24.109v29.76c0,13.294,9.981,24.11,22.248,24.11s22.248-10.816,22.248-24.11a2.785,2.785,0,1,0-5.571,0c0,10.222-7.482,18.537-16.678,18.537s-16.677-8.316-16.677-18.537v-29.76c0-10.221,7.482-18.537,16.677-18.537s16.678,8.316,16.678,18.537A2.786,2.786,0,0,0,267.47,250.695Z" transform="translate(-216.01 -214.593)" fill="#064796"/>
  <path id="Caminho_54" data-name="Caminho 54" d="M295.837,351.615a7.67,7.67,0,0,0,7.66-7.662V305.658a2.785,2.785,0,1,0-5.571,0v38.295a2.089,2.089,0,1,1-4.178,0V310.534a7.679,7.679,0,0,0-15.358,0v38.295a2.785,2.785,0,1,0,5.571,0V310.534a2.108,2.108,0,0,1,4.216,0v33.419A7.67,7.67,0,0,0,295.837,351.615Z" transform="translate(-258.911 -279.048)" fill="#064796"/>
</svg>
