<svg xmlns="http://www.w3.org/2000/svg" width="143.04" height="69.326" viewBox="0 0 143.04 69.326">
  <g id="Grupo_338" data-name="Grupo 338" transform="translate(-2271.025 -174)">
    <g id="Grupo_334" data-name="Grupo 334" transform="translate(2322.513 196.332)">
      <g id="Grupo_333" data-name="Grupo 333" transform="translate(0 0)">
        <path id="Caminho_7" data-name="Caminho 7" d="M2663.807,344.848h2.119v7.36a7.532,7.532,0,0,1-.279,2.466,2.34,2.34,0,0,1-.92,1.127,2.753,2.753,0,0,1-1.539.419,3.881,3.881,0,0,1-3.122-1.606l1.523-1.425a3.612,3.612,0,0,0,.86.769,1.415,1.415,0,0,0,.687.2.545.545,0,0,0,.505-.287,3,3,0,0,0,.166-1.259Z" transform="translate(-2660.067 -344.569)" fill="#fff"/>
        <path id="Caminho_8" data-name="Caminho 8" d="M2731.24,344.968l-1.477,1.408a4.572,4.572,0,0,0-3.391-1.593,3.716,3.716,0,0,0-3.767,3.767,3.96,3.96,0,0,0,.482,1.97,3.456,3.456,0,0,0,1.364,1.351,3.96,3.96,0,0,0,1.959.491,4.036,4.036,0,0,0,1.68-.343,6.025,6.025,0,0,0,1.673-1.249l1.432,1.494a7.855,7.855,0,0,1-2.323,1.664,6.342,6.342,0,0,1-2.5.464,5.746,5.746,0,0,1-4.234-1.64,5.678,5.678,0,0,1-1.648-4.2,5.756,5.756,0,0,1,.75-2.949,5.579,5.579,0,0,1,2.149-2.074,6.059,6.059,0,0,1,3.013-.784,6.394,6.394,0,0,1,4.834,2.228Z" transform="translate(-2712.496 -342.74)" fill="#fff"/>
        <path id="Caminho_9" data-name="Caminho 9" d="M2816.876,344.848h2.025l4.747,7.3v-7.3h2.111v11.093h-2.031l-4.741-7.277v7.277h-2.111Z" transform="translate(-2796.123 -344.569)" fill="#fff"/>
      </g>
    </g>
    <g id="Grupo_336" data-name="Grupo 336" transform="translate(2322.589 213.451)">
      <g id="Grupo_335" data-name="Grupo 335" transform="translate(0)">
        <path id="Caminho_10" data-name="Caminho 10" d="M2661.053,475.894h5.7v1.114h-4.566v3.568h4.566v1.114h-4.566v5.588h-1.137Z" transform="translate(-2660.999 -475.391)" fill="#fff"/>
        <path id="Caminho_11" data-name="Caminho 11" d="M2714.8,472.092a.894.894,0,0,1,0,1.788.9.9,0,0,1-.886-.89.867.867,0,0,1,.262-.635A.852.852,0,0,1,2714.8,472.092Zm-.538,3.467h1.083v8.42h-1.083Z" transform="translate(-2706.865 -472.092)" fill="#fff"/>
        <path id="Caminho_12" data-name="Caminho 12" d="M2741.749,496.869h1.083v1.509a4.527,4.527,0,0,1,1.439-1.3,3.536,3.536,0,0,1,1.718-.429,2.986,2.986,0,0,1,1.676.48,2.859,2.859,0,0,1,1.08,1.292,6.835,6.835,0,0,1,.348,2.531v4.334h-1.083v-4.016a9.878,9.878,0,0,0-.121-1.943,2.132,2.132,0,0,0-.722-1.258,2.182,2.182,0,0,0-1.393-.422,2.673,2.673,0,0,0-1.761.65,3.046,3.046,0,0,0-1.025,1.61,11.188,11.188,0,0,0-.155,2.291v3.088h-1.083Z" transform="translate(-2731.015 -493.402)" fill="#fff"/>
        <path id="Caminho_13" data-name="Caminho 13" d="M2820.688,496.869v8.42h-1.068v-1.447a4.643,4.643,0,0,1-1.528,1.246,4.269,4.269,0,0,1-4.906-.878,4.347,4.347,0,0,1-1.265-3.154,4.268,4.268,0,0,1,1.277-3.111,4.164,4.164,0,0,1,3.073-1.292,3.973,3.973,0,0,1,1.876.441,4.268,4.268,0,0,1,1.474,1.323v-1.548Zm-4.33.828a3.267,3.267,0,0,0-2.887,1.693,3.412,3.412,0,0,0,0,3.4,3.32,3.32,0,0,0,1.225,1.264,3.2,3.2,0,0,0,1.65.452,3.382,3.382,0,0,0,1.685-.448,3.137,3.137,0,0,0,1.225-1.214,3.465,3.465,0,0,0,.429-1.724,3.351,3.351,0,0,0-.962-2.443A3.188,3.188,0,0,0,2816.358,497.7Z" transform="translate(-2791.899 -493.402)" fill="#fff"/>
        <path id="Caminho_14" data-name="Caminho 14" d="M2896.593,496.869h1.083v1.509a4.533,4.533,0,0,1,1.44-1.3,3.536,3.536,0,0,1,1.718-.429,2.985,2.985,0,0,1,1.675.48,2.858,2.858,0,0,1,1.08,1.292,6.835,6.835,0,0,1,.348,2.531v4.334h-1.083v-4.016a9.9,9.9,0,0,0-.121-1.943,2.134,2.134,0,0,0-.722-1.258,2.181,2.181,0,0,0-1.393-.422,2.673,2.673,0,0,0-1.761.65,3.046,3.046,0,0,0-1.026,1.61,11.188,11.188,0,0,0-.155,2.291v3.088h-1.083Z" transform="translate(-2865.366 -493.402)" fill="#fff"/>
        <path id="Caminho_15" data-name="Caminho 15" d="M2975.215,498.618l-.859.534a3.6,3.6,0,0,0-3.038-1.478,3.514,3.514,0,0,0-2.555.99,3.229,3.229,0,0,0-1.017,2.4,3.413,3.413,0,0,0,.468,1.732,3.28,3.28,0,0,0,1.283,1.26,3.881,3.881,0,0,0,4.858-1.03l.859.565a4.056,4.056,0,0,1-1.621,1.41,5.179,5.179,0,0,1-2.318.5,4.579,4.579,0,0,1-3.312-1.269,4.129,4.129,0,0,1-1.315-3.088,4.411,4.411,0,0,1,.615-2.271,4.334,4.334,0,0,1,1.691-1.637,4.932,4.932,0,0,1,2.407-.588,5.14,5.14,0,0,1,1.614.255,4.49,4.49,0,0,1,1.319.665A3.624,3.624,0,0,1,2975.215,498.618Z" transform="translate(-2926.149 -493.402)" fill="#fff"/>
        <path id="Caminho_16" data-name="Caminho 16" d="M3051.511,502.5l.913.48a4.976,4.976,0,0,1-1.038,1.424,4.117,4.117,0,0,1-1.324.824,4.62,4.62,0,0,1-1.666.283,4.024,4.024,0,0,1-3.222-1.35,4.555,4.555,0,0,1-1.162-3.053,4.5,4.5,0,0,1,.984-2.856,4.022,4.022,0,0,1,3.339-1.594,4.154,4.154,0,0,1,3.439,1.633,4.559,4.559,0,0,1,.93,2.879h-7.577a3.428,3.428,0,0,0,.938,2.405,2.99,2.99,0,0,0,2.24.938,3.6,3.6,0,0,0,1.251-.224,3.285,3.285,0,0,0,1.034-.594A5.041,5.041,0,0,0,3051.511,502.5Zm0-2.268a3.593,3.593,0,0,0-.631-1.385,2.994,2.994,0,0,0-1.1-.836,3.357,3.357,0,0,0-1.433-.317,3.087,3.087,0,0,0-2.131.8,3.6,3.6,0,0,0-.984,1.741Z" transform="translate(-2993.274 -493.402)" fill="#fff"/>
        <path id="Caminho_17" data-name="Caminho 17" d="M2666.566,584.729a5.907,5.907,0,0,1,4.329,1.726,5.984,5.984,0,0,1-4.236,10.231,5.827,5.827,0,0,1-4.275-1.733,5.7,5.7,0,0,1-1.742-4.195,6.067,6.067,0,0,1,.794-3.041,5.864,5.864,0,0,1,5.131-2.987Zm.05,1.107a4.86,4.86,0,0,0-4.163,2.432,4.933,4.933,0,0,0-.635,2.486,4.788,4.788,0,0,0,4.8,4.825,4.869,4.869,0,0,0,2.453-.643,4.6,4.6,0,0,0,1.76-1.758,4.94,4.94,0,0,0,.632-2.478,4.821,4.821,0,0,0-.632-2.451,4.72,4.72,0,0,0-1.779-1.754A4.815,4.815,0,0,0,2666.616,585.836Z" transform="translate(-2660.642 -569.822)" fill="#fff"/>
        <path id="Caminho_18" data-name="Caminho 18" d="M2766.132,609.289h1.083v3.931a8.376,8.376,0,0,0,.155,1.981,2.208,2.208,0,0,0,.887,1.223,2.7,2.7,0,0,0,1.562.449,2.637,2.637,0,0,0,1.539-.437,2.235,2.235,0,0,0,.872-1.149,8.108,8.108,0,0,0,.163-2.066v-3.931h1.107v4.133a6.534,6.534,0,0,1-.406,2.624,3.1,3.1,0,0,1-1.223,1.381,3.863,3.863,0,0,1-2.047.5,3.9,3.9,0,0,1-2.054-.5,3.075,3.075,0,0,1-1.231-1.393,6.806,6.806,0,0,1-.406-2.689Z" transform="translate(-2752.171 -591.132)" fill="#fff"/>
        <path id="Caminho_19" data-name="Caminho 19" d="M2837.43,585.665h1.084v3.127h1.718v.936h-1.718v7.484h-1.084v-7.484h-1.478v-.936h1.478Z" transform="translate(-2812.75 -570.634)" fill="#fff"/>
        <path id="Caminho_20" data-name="Caminho 20" d="M2879.577,608.79l-.7.72a2.5,2.5,0,0,0-1.7-.844,1.285,1.285,0,0,0-.9.348,1.076,1.076,0,0,0-.376.813,1.2,1.2,0,0,0,.31.782,4.362,4.362,0,0,0,1.3.89,4.864,4.864,0,0,1,1.644,1.207,2.2,2.2,0,0,1,.426,1.323,2.376,2.376,0,0,1-.729,1.757,2.487,2.487,0,0,1-1.821.72,3.182,3.182,0,0,1-1.391-.317,3.019,3.019,0,0,1-1.1-.875l.681-.774a2.368,2.368,0,0,0,1.761.936,1.586,1.586,0,0,0,1.109-.418,1.29,1.29,0,0,0,.458-.983,1.259,1.259,0,0,0-.3-.828,4.87,4.87,0,0,0-1.365-.9,4.371,4.371,0,0,1-1.551-1.161,2.187,2.187,0,0,1-.411-1.308,2.127,2.127,0,0,1,.655-1.594,2.282,2.282,0,0,1,1.655-.635A3.43,3.43,0,0,1,2879.577,608.79Z" transform="translate(-2846.238 -589.711)" fill="#fff"/>
        <path id="Caminho_21" data-name="Caminho 21" d="M2928.355,607.652a4.171,4.171,0,0,1,3.225,1.409,4.521,4.521,0,0,1-.066,6.125,4.451,4.451,0,0,1-6.326,0,4.511,4.511,0,0,1-.066-6.118A4.168,4.168,0,0,1,2928.355,607.652Zm0,1.06a3.125,3.125,0,0,0-2.322,1,3.336,3.336,0,0,0-.971,2.415,3.423,3.423,0,0,0,.443,1.7,3.134,3.134,0,0,0,1.2,1.219,3.4,3.4,0,0,0,3.308,0,3.137,3.137,0,0,0,1.2-1.219,3.425,3.425,0,0,0,.443-1.7,3.329,3.329,0,0,0-.975-2.415A3.13,3.13,0,0,0,2928.351,608.712Z" transform="translate(-2889.11 -589.711)" fill="#fff"/>
        <path id="Caminho_22" data-name="Caminho 22" d="M3004.421,609.289h1.083v3.931a8.393,8.393,0,0,0,.155,1.981,2.211,2.211,0,0,0,.887,1.223,2.7,2.7,0,0,0,1.562.449,2.635,2.635,0,0,0,1.539-.437,2.238,2.238,0,0,0,.872-1.149,8.12,8.12,0,0,0,.163-2.066v-3.931h1.107v4.133a6.543,6.543,0,0,1-.406,2.624,3.1,3.1,0,0,1-1.223,1.381,3.861,3.861,0,0,1-2.047.5,3.9,3.9,0,0,1-2.055-.5,3.077,3.077,0,0,1-1.23-1.393,6.8,6.8,0,0,1-.406-2.689Z" transform="translate(-2958.923 -591.132)" fill="#fff"/>
        <path id="Caminho_23" data-name="Caminho 23" d="M3075.178,607.869h1.106V609.1a3.887,3.887,0,0,1,1.045-1.087,2.061,2.061,0,0,1,1.145-.36,1.978,1.978,0,0,1,.96.286l-.565.913a1.51,1.51,0,0,0-.573-.147,1.565,1.565,0,0,0-1.044.445,2.811,2.811,0,0,0-.766,1.381,13.25,13.25,0,0,0-.2,2.91v2.848h-1.106Z" transform="translate(-3020.316 -589.711)" fill="#fff"/>
        <path id="Caminho_24" data-name="Caminho 24" d="M3119.882,609.618l-.859.534a3.6,3.6,0,0,0-3.038-1.478,3.514,3.514,0,0,0-2.555.99,3.23,3.23,0,0,0-1.016,2.4,3.416,3.416,0,0,0,.467,1.732,3.28,3.28,0,0,0,1.283,1.26,3.88,3.88,0,0,0,4.858-1.03l.859.565a4.056,4.056,0,0,1-1.622,1.41,5.178,5.178,0,0,1-2.318.5,4.578,4.578,0,0,1-3.312-1.269,4.129,4.129,0,0,1-1.316-3.088,4.411,4.411,0,0,1,.615-2.271,4.334,4.334,0,0,1,1.691-1.637,4.934,4.934,0,0,1,2.407-.588,5.137,5.137,0,0,1,1.614.255,4.487,4.487,0,0,1,1.319.665A3.625,3.625,0,0,1,3119.882,609.618Z" transform="translate(-3051.67 -589.711)" fill="#fff"/>
        <path id="Caminho_25" data-name="Caminho 25" d="M3188.8,583.092a.894.894,0,0,1,0,1.788.9.9,0,0,1-.886-.89.868.868,0,0,1,.262-.635A.851.851,0,0,1,3188.8,583.092Zm-.538,3.467h1.083v8.42h-1.083Z" transform="translate(-3118.136 -568.402)" fill="#fff"/>
        <path id="Caminho_26" data-name="Caminho 26" d="M3215.753,607.869h1.083v1.509a4.533,4.533,0,0,1,1.44-1.3,3.536,3.536,0,0,1,1.718-.429,2.987,2.987,0,0,1,1.676.48,2.862,2.862,0,0,1,1.08,1.292,6.84,6.84,0,0,1,.348,2.531v4.334h-1.083v-4.016a9.9,9.9,0,0,0-.121-1.943,2.133,2.133,0,0,0-.722-1.258,2.181,2.181,0,0,0-1.393-.422,2.673,2.673,0,0,0-1.761.65,3.048,3.048,0,0,0-1.026,1.61,11.188,11.188,0,0,0-.155,2.291v3.088h-1.083Z" transform="translate(-3142.286 -589.711)" fill="#fff"/>
        <path id="Caminho_27" data-name="Caminho 27" d="M3293.208,607.869h1.083v6.71a7.93,7.93,0,0,1-.31,2.593,3.371,3.371,0,0,1-1.478,1.788,4.858,4.858,0,0,1-2.531.627,5.793,5.793,0,0,1-1.946-.307,3.89,3.89,0,0,1-1.4-.823,4.9,4.9,0,0,1-1-1.51h1.177a3.106,3.106,0,0,0,1.24,1.238,3.984,3.984,0,0,0,1.883.4,3.894,3.894,0,0,0,1.871-.412,2.533,2.533,0,0,0,1.089-1.037,4.623,4.623,0,0,0,.325-2.017v-.433a4.1,4.1,0,0,1-1.5,1.188,4.439,4.439,0,0,1-4.06-.162,4.1,4.1,0,0,1-1.58-1.552,4.239,4.239,0,0,1-.558-2.144,4.382,4.382,0,0,1,4.354-4.365,4.036,4.036,0,0,1,1.762.391,4.864,4.864,0,0,1,1.576,1.289Zm-3.2.828a3.427,3.427,0,0,0-1.71.445,3.227,3.227,0,0,0-1.238,1.231,3.366,3.366,0,0,0-.449,1.7,3.064,3.064,0,0,0,.929,2.291,3.658,3.658,0,0,0,4.81.008,3.169,3.169,0,0,0,.909-2.36,3.42,3.42,0,0,0-.418-1.7,3.048,3.048,0,0,0-1.184-1.18A3.294,3.294,0,0,0,3290.011,608.7Z" transform="translate(-3202.816 -589.711)" fill="#fff"/>
      </g>
    </g>
    <g id="Grupo_337" data-name="Grupo 337" transform="translate(2271.025 174)">
      <path id="Caminho_28" data-name="Caminho 28" d="M2293.981,174a22.764,22.764,0,0,0-16.53,7.029,1.994,1.994,0,1,0,2.871,2.768,18.967,18.967,0,0,1,32.627,13.166v23.079a18.968,18.968,0,1,1-37.936,0,1.994,1.994,0,1,0-3.988,0,22.956,22.956,0,1,0,45.912,0V196.964A22.986,22.986,0,0,0,2293.981,174Z" transform="translate(-2271.025 -174)" fill="#0965d6"/>
      <path id="Caminho_29" data-name="Caminho 29" d="M2353.62,243.053a1.994,1.994,0,0,0,1.994-1.995c0-9.517-7.145-17.26-15.927-17.26s-15.927,7.743-15.927,17.26v21.305c0,9.517,7.145,17.26,15.927,17.26s15.927-7.743,15.927-17.26a1.994,1.994,0,1,0-3.988,0c0,7.318-5.356,13.271-11.939,13.271s-11.939-5.953-11.939-13.271V241.059c0-7.317,5.356-13.27,11.939-13.27s11.939,5.953,11.939,13.27A1.994,1.994,0,0,0,2353.62,243.053Z" transform="translate(-2316.78 -217.208)" fill="#0965d6"/>
      <path id="Caminho_30" data-name="Caminho 30" d="M2388.88,337.767a5.491,5.491,0,0,0,5.483-5.485V304.867a1.994,1.994,0,1,0-3.988,0v27.415a1.5,1.5,0,1,1-2.991,0V308.357a5.5,5.5,0,0,0-10.994,0v27.415a1.994,1.994,0,1,0,3.988,0V308.357a1.509,1.509,0,0,1,3.018,0v23.924A5.491,5.491,0,0,0,2388.88,337.767Z" transform="translate(-2362.445 -285.816)" fill="#0965d6"/>
    </g>
  </g>
</svg>
