<svg xmlns="http://www.w3.org/2000/svg" width="291.5" height="97.208" viewBox="0 0 291.5 97.208">
  <g id="Grupo_349" data-name="Grupo 349" transform="translate(-173.025 -174)">
    <g id="Grupo_345" data-name="Grupo 345" transform="translate(245.131 226.085)">
      <g id="Grupo_344" data-name="Grupo 344">
        <path id="Caminho_31" data-name="Caminho 31" d="M568.292,457.848h2.96v10.281a10.514,10.514,0,0,1-.39,3.445,3.268,3.268,0,0,1-1.285,1.575,3.844,3.844,0,0,1-2.149.585,5.422,5.422,0,0,1-4.361-2.244l2.128-1.991a5.05,5.05,0,0,0,1.2,1.074,1.975,1.975,0,0,0,.959.274.762.762,0,0,0,.706-.4,4.186,4.186,0,0,0,.232-1.759Z" transform="translate(-563.067 -457.458)" fill="#03234a"/>
        <path id="Caminho_32" data-name="Caminho 32" d="M638.5,458.853l-2.063,1.967a6.387,6.387,0,0,0-4.736-2.225,5.19,5.19,0,0,0-5.262,5.262,5.533,5.533,0,0,0,.673,2.752,4.827,4.827,0,0,0,1.905,1.888,5.532,5.532,0,0,0,2.736.685,5.637,5.637,0,0,0,2.347-.48,8.411,8.411,0,0,0,2.337-1.745l2,2.086a10.978,10.978,0,0,1-3.245,2.324,8.858,8.858,0,0,1-3.487.648,8.027,8.027,0,0,1-5.915-2.291,7.932,7.932,0,0,1-2.3-5.873,8.036,8.036,0,0,1,1.048-4.119,7.791,7.791,0,0,1,3-2.9,8.466,8.466,0,0,1,4.208-1.1,8.932,8.932,0,0,1,6.752,3.113Z" transform="translate(-612.323 -455.74)" fill="#03234a"/>
        <path id="Caminho_33" data-name="Caminho 33" d="M719.876,457.848h2.829l6.63,10.2v-10.2h2.95v15.5h-2.837l-6.622-10.165v10.165h-2.95Z" transform="translate(-690.887 -457.458)" fill="#03234a"/>
      </g>
    </g>
    <g id="Grupo_347" data-name="Grupo 347" transform="translate(245.314 249.998)">
      <g id="Grupo_346" data-name="Grupo 346" transform="translate(0 0)">
        <path id="Caminho_34" data-name="Caminho 34" d="M564.053,588.894h7.967v1.556h-6.378v4.984h6.378v1.557h-6.378V604.8h-1.589Z" transform="translate(-564.053 -588.191)" fill="#03234a"/>
        <path id="Caminho_35" data-name="Caminho 35" d="M618.153,585.092a1.249,1.249,0,0,1,0,2.5,1.252,1.252,0,0,1-1.238-1.243,1.211,1.211,0,0,1,.366-.886A1.189,1.189,0,0,1,618.153,585.092Zm-.751,4.843h1.513V601.7H617.4Z" transform="translate(-607.142 -585.092)" fill="#03234a"/>
        <path id="Caminho_36" data-name="Caminho 36" d="M644.749,609.955h1.513v2.108a6.329,6.329,0,0,1,2.011-1.811,4.941,4.941,0,0,1,2.4-.6,4.171,4.171,0,0,1,2.34.67,3.993,3.993,0,0,1,1.508,1.805,9.543,9.543,0,0,1,.487,3.535v6.054h-1.513v-5.61a13.828,13.828,0,0,0-.168-2.713,2.98,2.98,0,0,0-1.009-1.757,3.048,3.048,0,0,0-1.946-.589,3.734,3.734,0,0,0-2.46.908,4.256,4.256,0,0,0-1.433,2.249,15.636,15.636,0,0,0-.216,3.2v4.313h-1.513Z" transform="translate(-629.831 -605.112)" fill="#03234a"/>
        <path id="Caminho_37" data-name="Caminho 37" d="M727.168,609.955v11.762h-1.492v-2.021a6.491,6.491,0,0,1-2.135,1.74,5.964,5.964,0,0,1-6.854-1.227,6.071,6.071,0,0,1-1.768-4.405,5.961,5.961,0,0,1,1.784-4.346A5.815,5.815,0,0,1,721,609.652a5.55,5.55,0,0,1,2.621.616,5.965,5.965,0,0,1,2.059,1.849v-2.162Zm-6.048,1.157a4.564,4.564,0,0,0-4.033,2.365,4.765,4.765,0,0,0,.005,4.751,4.639,4.639,0,0,0,1.711,1.765,4.472,4.472,0,0,0,2.305.632,4.725,4.725,0,0,0,2.354-.626,4.382,4.382,0,0,0,1.712-1.7,4.84,4.84,0,0,0,.6-2.408,4.681,4.681,0,0,0-1.344-3.412A4.453,4.453,0,0,0,721.12,611.111Z" transform="translate(-687.029 -605.112)" fill="#03234a"/>
        <path id="Caminho_38" data-name="Caminho 38" d="M799.593,609.955h1.514v2.108a6.329,6.329,0,0,1,2.011-1.811,4.94,4.94,0,0,1,2.4-.6,4.171,4.171,0,0,1,2.34.67,4,4,0,0,1,1.508,1.805,9.549,9.549,0,0,1,.486,3.535v6.054h-1.513v-5.61a13.83,13.83,0,0,0-.168-2.713,2.98,2.98,0,0,0-1.009-1.757,3.047,3.047,0,0,0-1.946-.589,3.733,3.733,0,0,0-2.46.908,4.254,4.254,0,0,0-1.433,2.249,15.62,15.62,0,0,0-.216,3.2v4.313h-1.514Z" transform="translate(-756.049 -605.112)" fill="#03234a"/>
        <path id="Caminho_39" data-name="Caminho 39" d="M881.615,612.4l-1.2.746a5.027,5.027,0,0,0-4.244-2.065,4.909,4.909,0,0,0-3.568,1.382,4.511,4.511,0,0,0-1.42,3.358,4.77,4.77,0,0,0,.653,2.419,4.58,4.58,0,0,0,1.793,1.76,5.42,5.42,0,0,0,6.786-1.438l1.2.789a5.665,5.665,0,0,1-2.265,1.97,7.232,7.232,0,0,1-3.238.7,6.4,6.4,0,0,1-4.627-1.773,5.767,5.767,0,0,1-1.838-4.313,6.162,6.162,0,0,1,.859-3.173,6.055,6.055,0,0,1,2.362-2.286,6.89,6.89,0,0,1,3.362-.822,7.176,7.176,0,0,1,2.254.357,6.272,6.272,0,0,1,1.843.929A5.068,5.068,0,0,1,881.615,612.4Z" transform="translate(-813.153 -605.112)" fill="#03234a"/>
        <path id="Caminho_40" data-name="Caminho 40" d="M957.487,617.814l1.275.67a6.953,6.953,0,0,1-1.45,1.989,5.757,5.757,0,0,1-1.85,1.151,6.454,6.454,0,0,1-2.326.395,5.622,5.622,0,0,1-4.5-1.886,6.364,6.364,0,0,1-1.623-4.265,6.287,6.287,0,0,1,1.374-3.989,5.618,5.618,0,0,1,4.663-2.227,5.8,5.8,0,0,1,4.8,2.281,6.368,6.368,0,0,1,1.3,4.021H948.569a4.788,4.788,0,0,0,1.31,3.36,4.177,4.177,0,0,0,3.128,1.31,5.025,5.025,0,0,0,1.748-.312,4.6,4.6,0,0,0,1.445-.829A7.057,7.057,0,0,0,957.487,617.814Zm0-3.168a5.019,5.019,0,0,0-.882-1.935,4.175,4.175,0,0,0-1.531-1.167,4.689,4.689,0,0,0-2-.443,4.311,4.311,0,0,0-2.976,1.113,5.03,5.03,0,0,0-1.375,2.432Z" transform="translate(-876.215 -605.112)" fill="#03234a"/>
        <path id="Caminho_41" data-name="Caminho 41" d="M1066.917,586.729a8.25,8.25,0,0,1,6.047,2.411,8.359,8.359,0,0,1-5.917,14.291,8.139,8.139,0,0,1-5.971-2.421,7.96,7.96,0,0,1-2.434-5.859,8.472,8.472,0,0,1,1.109-4.248,8.191,8.191,0,0,1,7.167-4.173Zm.07,1.546a6.789,6.789,0,0,0-5.815,3.4,6.89,6.89,0,0,0-.888,3.473,6.689,6.689,0,0,0,6.7,6.74,6.8,6.8,0,0,0,3.427-.9,6.429,6.429,0,0,0,2.458-2.456,6.9,6.9,0,0,0,.883-3.462,6.731,6.731,0,0,0-.883-3.424,6.591,6.591,0,0,0-2.485-2.45A6.726,6.726,0,0,0,1066.987,588.275Z" transform="translate(-967.208 -586.426)" fill="#03234a"/>
        <path id="Caminho_42" data-name="Caminho 42" d="M1164.132,611.289h1.513v5.492a11.714,11.714,0,0,0,.217,2.767,3.086,3.086,0,0,0,1.24,1.708,3.764,3.764,0,0,0,2.182.627,3.683,3.683,0,0,0,2.149-.611,3.124,3.124,0,0,0,1.218-1.605,11.336,11.336,0,0,0,.227-2.886v-5.492h1.546v5.773a9.129,9.129,0,0,1-.568,3.665,4.333,4.333,0,0,1-1.708,1.93,5.4,5.4,0,0,1-2.859.7,5.452,5.452,0,0,1-2.87-.7,4.3,4.3,0,0,1-1.719-1.946,9.5,9.5,0,0,1-.568-3.757Z" transform="translate(-1053.196 -606.446)" fill="#03234a"/>
        <path id="Caminho_43" data-name="Caminho 43" d="M1236.017,587.665h1.514v4.367h2.4v1.308h-2.4v10.453h-1.514V593.34h-2.065v-1.308h2.065Z" transform="translate(-1110.109 -587.189)" fill="#03234a"/>
        <path id="Caminho_44" data-name="Caminho 44" d="M1279.574,611.241l-.973,1.005a3.5,3.5,0,0,0-2.373-1.178,1.794,1.794,0,0,0-1.263.486,1.5,1.5,0,0,0-.526,1.135,1.682,1.682,0,0,0,.433,1.092,6.094,6.094,0,0,0,1.82,1.243,6.8,6.8,0,0,1,2.3,1.686,3.073,3.073,0,0,1,.6,1.849,3.318,3.318,0,0,1-1.018,2.454,3.474,3.474,0,0,1-2.544,1.005,4.446,4.446,0,0,1-1.943-.443,4.218,4.218,0,0,1-1.532-1.222l.951-1.081a3.308,3.308,0,0,0,2.46,1.308,2.216,2.216,0,0,0,1.55-.584,1.8,1.8,0,0,0,.639-1.373,1.761,1.761,0,0,0-.422-1.157,6.808,6.808,0,0,0-1.907-1.254,6.106,6.106,0,0,1-2.167-1.621,3.054,3.054,0,0,1-.574-1.827,2.972,2.972,0,0,1,.915-2.227,3.188,3.188,0,0,1,2.312-.886A4.792,4.792,0,0,1,1279.574,611.241Z" transform="translate(-1141.569 -605.112)" fill="#03234a"/>
        <path id="Caminho_45" data-name="Caminho 45" d="M1328.1,609.652a5.826,5.826,0,0,1,4.505,1.968,6.315,6.315,0,0,1-.092,8.556,6.217,6.217,0,0,1-8.837,0,6.3,6.3,0,0,1-.092-8.545A5.822,5.822,0,0,1,1328.1,609.652Zm-.005,1.481a4.366,4.366,0,0,0-3.244,1.395,4.661,4.661,0,0,0-1.356,3.373,4.782,4.782,0,0,0,.618,2.378,4.379,4.379,0,0,0,1.671,1.7,4.749,4.749,0,0,0,4.621,0,4.381,4.381,0,0,0,1.671-1.7,4.783,4.783,0,0,0,.618-2.378,4.651,4.651,0,0,0-1.362-3.373A4.372,4.372,0,0,0,1328.094,611.133Z" transform="translate(-1181.846 -605.112)" fill="#03234a"/>
        <path id="Caminho_46" data-name="Caminho 46" d="M1402.421,611.289h1.513v5.492a11.714,11.714,0,0,0,.217,2.767,3.086,3.086,0,0,0,1.24,1.708,3.764,3.764,0,0,0,2.182.627,3.682,3.682,0,0,0,2.149-.611,3.124,3.124,0,0,0,1.218-1.605,11.332,11.332,0,0,0,.228-2.886v-5.492h1.546v5.773a9.131,9.131,0,0,1-.567,3.665,4.333,4.333,0,0,1-1.708,1.93,5.4,5.4,0,0,1-2.859.7,5.453,5.453,0,0,1-2.87-.7,4.3,4.3,0,0,1-1.719-1.946,9.5,9.5,0,0,1-.568-3.757Z" transform="translate(-1247.433 -606.446)" fill="#03234a"/>
        <path id="Caminho_47" data-name="Caminho 47" d="M1473.178,609.955h1.546v1.719a5.427,5.427,0,0,1,1.46-1.519,2.879,2.879,0,0,1,1.6-.5,2.763,2.763,0,0,1,1.34.4l-.789,1.276a2.106,2.106,0,0,0-.8-.206,2.189,2.189,0,0,0-1.459.622,3.928,3.928,0,0,0-1.07,1.93,18.492,18.492,0,0,0-.281,4.065v3.978h-1.546Z" transform="translate(-1305.11 -605.112)" fill="#03234a"/>
        <path id="Caminho_48" data-name="Caminho 48" d="M1521.282,612.4l-1.2.746a5.027,5.027,0,0,0-4.244-2.065,4.909,4.909,0,0,0-3.569,1.382,4.511,4.511,0,0,0-1.42,3.358,4.77,4.77,0,0,0,.653,2.419A4.579,4.579,0,0,0,1513.3,620a5.42,5.42,0,0,0,6.786-1.438l1.2.789a5.664,5.664,0,0,1-2.265,1.97,7.232,7.232,0,0,1-3.238.7,6.394,6.394,0,0,1-4.627-1.773,5.767,5.767,0,0,1-1.838-4.313,6.161,6.161,0,0,1,.86-3.173,6.053,6.053,0,0,1,2.362-2.286,6.891,6.891,0,0,1,3.362-.822,7.176,7.176,0,0,1,2.254.357,6.272,6.272,0,0,1,1.843.929A5.069,5.069,0,0,1,1521.282,612.4Z" transform="translate(-1334.566 -605.112)" fill="#03234a"/>
        <path id="Caminho_49" data-name="Caminho 49" d="M1587.157,585.092a1.249,1.249,0,0,1,0,2.5,1.252,1.252,0,0,1-1.238-1.243,1.211,1.211,0,0,1,.366-.886A1.189,1.189,0,0,1,1587.157,585.092Zm-.751,4.843h1.513V601.7h-1.513Z" transform="translate(-1397.008 -585.092)" fill="#03234a"/>
        <path id="Caminho_50" data-name="Caminho 50" d="M1613.753,609.955h1.513v2.108a6.335,6.335,0,0,1,2.011-1.811,4.94,4.94,0,0,1,2.4-.6,4.171,4.171,0,0,1,2.34.67,4,4,0,0,1,1.508,1.805,9.548,9.548,0,0,1,.487,3.535v6.054H1622.5v-5.61a13.838,13.838,0,0,0-.168-2.713,2.98,2.98,0,0,0-1.009-1.757,3.047,3.047,0,0,0-1.946-.589,3.733,3.733,0,0,0-2.46.908,4.254,4.254,0,0,0-1.433,2.249,15.632,15.632,0,0,0-.216,3.2v4.313h-1.513Z" transform="translate(-1419.697 -605.112)" fill="#03234a"/>
        <path id="Caminho_51" data-name="Caminho 51" d="M1694.26,609.955h1.513v9.373a11.067,11.067,0,0,1-.432,3.621,4.708,4.708,0,0,1-2.065,2.5,6.785,6.785,0,0,1-3.535.876,8.091,8.091,0,0,1-2.719-.428,5.436,5.436,0,0,1-1.962-1.149,6.837,6.837,0,0,1-1.395-2.109h1.643a4.338,4.338,0,0,0,1.732,1.729,5.565,5.565,0,0,0,2.63.562,5.44,5.44,0,0,0,2.614-.576,3.537,3.537,0,0,0,1.521-1.449,6.461,6.461,0,0,0,.455-2.818v-.605a5.732,5.732,0,0,1-2.089,1.659,6.2,6.2,0,0,1-5.67-.227,5.721,5.721,0,0,1-2.208-2.168,5.924,5.924,0,0,1-.779-2.994,6.121,6.121,0,0,1,6.081-6.1,5.636,5.636,0,0,1,2.462.546,6.793,6.793,0,0,1,2.2,1.8Zm-4.465,1.157a4.787,4.787,0,0,0-2.389.621,4.506,4.506,0,0,0-1.729,1.719,4.7,4.7,0,0,0-.627,2.373,4.28,4.28,0,0,0,1.3,3.2,5.11,5.11,0,0,0,6.719.011,4.426,4.426,0,0,0,1.27-3.3,4.779,4.779,0,0,0-.584-2.373,4.257,4.257,0,0,0-1.654-1.648A4.6,4.6,0,0,0,1689.8,611.111Z" transform="translate(-1476.562 -605.112)" fill="#03234a"/>
      </g>
    </g>
    <g id="Grupo_348" data-name="Grupo 348" transform="translate(173.025 174)">
      <path id="Caminho_52" data-name="Caminho 52" d="M205.091,174A31.8,31.8,0,0,0,182,183.819a2.786,2.786,0,1,0,4.011,3.867,26.494,26.494,0,0,1,45.575,18.391v32.238a26.5,26.5,0,1,1-52.992,0,2.785,2.785,0,1,0-5.571,0,32.066,32.066,0,1,0,64.133,0V206.077A32.108,32.108,0,0,0,205.091,174Z" transform="translate(-173.025 -174)" fill="#064796"/>
      <path id="Caminho_53" data-name="Caminho 53" d="M267.47,250.695a2.786,2.786,0,0,0,2.785-2.786c0-13.294-9.981-24.109-22.248-24.109s-22.248,10.816-22.248,24.109v29.76c0,13.294,9.981,24.11,22.248,24.11s22.248-10.816,22.248-24.11a2.785,2.785,0,1,0-5.571,0c0,10.222-7.482,18.537-16.678,18.537s-16.677-8.316-16.677-18.537v-29.76c0-10.221,7.482-18.537,16.677-18.537s16.678,8.316,16.678,18.537A2.786,2.786,0,0,0,267.47,250.695Z" transform="translate(-216.01 -214.593)" fill="#064796"/>
      <path id="Caminho_54" data-name="Caminho 54" d="M295.837,351.615a7.67,7.67,0,0,0,7.66-7.662V305.658a2.785,2.785,0,1,0-5.571,0v38.295a2.089,2.089,0,1,1-4.178,0V310.534a7.679,7.679,0,0,0-15.358,0v38.295a2.785,2.785,0,1,0,5.571,0V310.534a2.108,2.108,0,0,1,4.216,0v33.419A7.67,7.67,0,0,0,295.837,351.615Z" transform="translate(-258.911 -279.048)" fill="#064796"/>
    </g>
  </g>
</svg>
