<svg id="Grupo_353" data-name="Grupo 353" xmlns="http://www.w3.org/2000/svg" width="24" height="24" viewBox="0 0 24 24">
  <path id="Caminho_61" data-name="Caminho 61" d="M0,0H24V24H0Z" fill="none"/>
  <path id="Caminho_62" data-name="Caminho 62" d="M4,3H20a1,1,0,0,1,1,1V20a1,1,0,0,1-1,1H4a1,1,0,0,1-1-1V4A1,1,0,0,1,4,3ZM17.3,15.94a.357.357,0,0,1-.15-.3V8.006a.544.544,0,0,1,.15-.351l.955-1.105V6.5H14.84l-2.56,6.478L9.366,6.5H5.852v.05l.9,1.256a1.054,1.054,0,0,1,.251.753v5.523a1.608,1.608,0,0,1-.15.954L5.5,16.894v.05H9.116v-.05L7.76,15.087a1.546,1.546,0,0,1-.15-.954V9.11a.812.812,0,0,1,.15.3l3.414,7.633h.05L14.54,8.76a5.779,5.779,0,0,0-.05.9v5.925a.458.458,0,0,1-.15.351l-1.005.954v.05h4.921v-.05L17.3,15.94Z" fill="#03234a"/>
</svg>
