<svg xmlns="http://www.w3.org/2000/svg" width="152" height="152" viewBox="0 0 152 152">
  <g id="Grupo_433" data-name="Grupo 433" transform="translate(152 152) rotate(180)">
    <path id="Caminho_67" data-name="Caminho 67" d="M0,0H152V152H0Z" fill="none"/>
    <path id="Caminho_68" data-name="Caminho 68" d="M13.026,83.977C6.5,77.048,3,69.277,3,56.68,3,34.514,18.561,14.646,41.19,4.823l5.656,8.727C25.724,24.976,21.595,39.8,19.948,49.15a22.675,22.675,0,0,1,12.217-1.97A22.166,22.166,0,0,1,30.43,91.444,24.516,24.516,0,0,1,13.026,83.977Zm63.333,0c-6.523-6.929-10.026-14.7-10.026-27.3,0-22.167,15.561-42.034,38.19-51.857l5.656,8.727C89.057,24.976,84.928,39.8,83.281,49.15A22.675,22.675,0,0,1,95.5,47.18a22.166,22.166,0,0,1-1.735,44.264,24.517,24.517,0,0,1-17.4-7.467Z" transform="translate(16 25.723)" fill="#0965d6"/>
  </g>
</svg>
